<?xml version="1.0" encoding="utf-8"?>
<!-- Generator: Adobe Illustrator 21.1.0, SVG Export Plug-In . SVG Version: 6.00 Build 0)  -->
<svg version="1.1" id="Layer_1" xmlns="http://www.w3.org/2000/svg" xmlns:xlink="http://www.w3.org/1999/xlink" x="0px" y="0px"
	 viewBox="0 0 22 22" style="enable-background:new 0 0 22 22;" xml:space="preserve">
<style type="text/css">
	.st0{fill:#6C0C33;}
</style>
<path class="st0" d="M21.7,20.1l-5.6-5.6c2.7-3.5,2.5-8.6-0.7-11.9c-3.5-3.5-9.2-3.5-12.7,0c-3.5,3.5-3.5,9.2,0,12.7
	C4.4,17.1,6.7,18,9,18c2,0,3.9-0.6,5.6-1.9l5.6,5.6c0.2,0.2,0.5,0.3,0.8,0.3c0.3,0,0.6-0.1,0.8-0.3C22.1,21.3,22.1,20.6,21.7,20.1z
	 M4.2,13.8c-2.7-2.7-2.7-7,0-9.7c1.3-1.3,3.1-2,4.8-2c1.7,0,3.5,0.7,4.8,2c2.7,2.7,2.7,7,0,9.7C11.2,16.5,6.8,16.5,4.2,13.8z"/>
</svg>
